<?xml version="1.0" encoding="UTF-8" standalone="no"?>
<!-- Created with Inkscape (http://www.inkscape.org/) -->

<svg
   width="30"
   height="30"
   viewBox="0 0 7.9374998 7.9375"
   version="1.1"
   id="svg246"
   xmlns:inkscape="http://www.inkscape.org/namespaces/inkscape"
   xmlns:sodipodi="http://sodipodi.sourceforge.net/DTD/sodipodi-0.dtd"
   xmlns="http://www.w3.org/2000/svg"
   xmlns:svg="http://www.w3.org/2000/svg">
  <sodipodi:namedview
     id="namedview248"
     pagecolor="#ffffff"
     bordercolor="#000000"
     borderopacity="0.25"
     inkscape:showpageshadow="2"
     inkscape:pageopacity="0.0"
     inkscape:pagecheckerboard="0"
     inkscape:deskcolor="#d1d1d1"
     inkscape:document-units="mm"
     showgrid="false" />
  <defs
     id="defs243" />
  <g
     inkscape:label="Layer 1"
     inkscape:groupmode="layer"
     id="layer1">
    <g
       id="g424"
       transform="matrix(0.32520075,0,0,0.32520075,-3.836068,-3.8357428)">
      <path
         fill="#ec407a"
         fill-rule="evenodd"
         d="m 29.208,20.607 c 1.576,1.126 3.507,1.788 5.592,1.788 v -4.011 c -0.395,0 -0.788,-0.041 -1.174,-0.123 v 3.157 c -2.085,0 -4.015,-0.663 -5.592,-1.788 v 8.184 c 0,4.094 -3.321,7.413 -7.417,7.413 -1.528,0 -2.949,-0.462 -4.129,-1.254 1.347,1.376 3.225,2.23 5.303,2.23 4.096,0 7.417,-3.319 7.417,-7.413 z m 1.449,-4.046 c -0.805,-0.879 -1.334,-2.016 -1.449,-3.273 v -0.516 h -1.113 c 0.28,1.597 1.236,2.962 2.562,3.789 z M 19.079,30.832 c -0.45,-0.59 -0.693,-1.311 -0.692,-2.053 0,-1.873 1.519,-3.391 3.393,-3.391 0.349,0 0.696,0.053 1.029,0.159 v -4.1 C 22.42,21.394 22.028,21.371 21.635,21.379 v 3.191 c -0.333,-0.106 -0.68,-0.159 -1.03,-0.159 -1.874,0 -3.393,1.518 -3.393,3.391 0.001,1.325 0.76,2.472 1.867,3.03 z"
         clip-rule="evenodd"
         id="path4" />
      <path
         fill="#ffffff"
         fill-rule="evenodd"
         d="m 28.034,19.63 c 1.576,1.126 3.507,1.788 5.592,1.788 V 18.261 C 32.462,18.013 31.432,17.405 30.657,16.56 29.331,15.733 28.376,14.369 28.096,12.772 H 25.173 V 28.79 c -0.007,1.867 -1.523,3.379 -3.393,3.379 -1.102,0 -2.081,-0.525 -2.701,-1.338 -1.107,-0.558 -1.866,-1.705 -1.866,-3.029 0,-1.873 1.519,-3.391 3.393,-3.391 0.359,0 0.705,0.056 1.03,0.159 v -3.19 c -4.024,0.083 -7.26,3.369 -7.26,7.411 0,2.018 0.806,3.847 2.114,5.183 1.18,0.792 2.601,1.254 4.129,1.254 4.096,0 7.417,-3.319 7.417,-7.413 z"
         clip-rule="evenodd"
         id="path6" />
      <path
         fill="#81d4fa"
         fill-rule="evenodd"
         d="m 33.626,18.262 v -0.854 c -1.05,0.002 -2.078,-0.292 -2.969,-0.848 0.788,0.863 1.826,1.458 2.969,1.702 z m -5.531,-5.49 c -0.027,-0.153 -0.047,-0.306 -0.061,-0.461 v -0.516 h -4.036 v 16.019 c -0.006,1.867 -1.523,3.379 -3.393,3.379 -0.549,0 -1.067,-0.13 -1.526,-0.362 0.62,0.813 1.599,1.338 2.701,1.338 1.87,0 3.386,-1.512 3.393,-3.379 V 12.772 Z m -6.46,8.608 v -0.909 c -0.337,-0.046 -0.677,-0.069 -1.018,-0.069 -4.097,0 -7.417,3.319 -7.417,7.413 0,2.567 1.305,4.829 3.288,6.159 -1.308,-1.336 -2.114,-3.165 -2.114,-5.183 0,-4.042 3.237,-7.328 7.261,-7.411 z"
         clip-rule="evenodd"
         id="path8" />
    </g>
  </g>
</svg>
